<svg width="19" height="19" viewBox="0 0 19 19" fill="none" xmlns="http://www.w3.org/2000/svg">
<path fill-rule="evenodd" clip-rule="evenodd" d="M9.5 19C14.7469 19 19 14.7469 19 9.5C19 4.25315 14.7469 0 9.5 0C4.25315 0 0 4.25315 0 9.5C0 14.7469 4.25315 19 9.5 19ZM12.8592 6.1408C13.0376 5.96267 13.2794 5.86269 13.5315 5.86287C13.7836 5.86305 14.0253 5.96337 14.2035 6.14175C14.3816 6.32013 14.4816 6.56198 14.4814 6.81407C14.4812 7.06617 14.3809 7.30787 14.2025 7.486L8.83215 12.8563L8.82835 12.8601C8.74033 12.9487 8.63568 13.0189 8.52041 13.0669C8.40514 13.1148 8.28154 13.1395 8.1567 13.1395C8.03186 13.1395 7.90826 13.1148 7.79299 13.0669C7.67772 13.0189 7.57307 12.9487 7.48505 12.8601L7.48125 12.8563L4.7975 10.1726C4.70677 10.085 4.63439 9.98014 4.5846 9.86423C4.53482 9.74833 4.50861 9.62367 4.50751 9.49753C4.50642 9.37139 4.53045 9.2463 4.57822 9.12954C4.62599 9.01279 4.69653 8.90672 4.78572 8.81752C4.87492 8.72833 4.98099 8.65779 5.09774 8.61002C5.2145 8.56225 5.33959 8.53822 5.46573 8.53931C5.59187 8.54041 5.71653 8.56662 5.83243 8.6164C5.94834 8.66619 6.05316 8.73856 6.1408 8.8293L8.1567 10.8442L12.8592 6.14175V6.1408Z" fill="#212121"/>
</svg>
