<svg width="463" height="369" viewBox="0 0 463 369" fill="none" xmlns="http://www.w3.org/2000/svg">
<rect x="133" y="1" width="119" height="205.617" rx="15" fill="#DACDF4" stroke="#212121" stroke-width="2"/>
<path d="M196.6 80L194.12 80L194.12 78.48C194.12 74.92 191.72 72.64 188.04 72.64L177 72.64L177 69.88L196.36 69.88L196.36 72.48L193.36 72.68C195.44 73.44 196.8 75.48 196.8 78.2C196.8 78.8 196.76 79.32 196.6 80ZM196.36 97.2691L196.36 100.029L177 100.029L177 97.6291L180.28 97.2691C178.04 96.1891 176.52 93.5091 176.52 90.4691C176.52 85.9091 179.64 83.4291 184.36 83.4291L196.4 83.4291L196.4 86.2291L185.24 86.2291C180.64 86.2291 179 88.2691 179 91.3491C179 95.0691 181.48 97.2691 186.08 97.2691L196.36 97.2691ZM177 108.538L177 105.778L196.36 105.778L196.36 108.178L193 108.578C195.48 109.858 196.88 112.418 196.88 115.218C196.88 120.538 193.72 122.738 188.84 122.738L177 122.738L177 119.978L188.24 119.978C192.76 119.978 194.36 117.938 194.36 114.738C194.36 110.778 191.48 108.538 187.12 108.538L177 108.538ZM182.44 126.365L182.44 129.005C180.2 129.005 178.8 130.685 178.8 133.405C178.8 136.405 180.08 138.165 182.16 138.165C183.76 138.165 184.68 137.365 185.24 135.085L186.08 131.765C186.92 128.405 188.68 126.765 191.32 126.765C194.72 126.765 196.88 129.605 196.88 133.765C196.88 137.845 194.64 140.485 191.04 140.605L191.04 137.925C193.28 137.845 194.6 136.285 194.6 133.685C194.6 130.965 193.44 129.445 191.36 129.445C189.88 129.445 188.84 130.485 188.32 132.605L187.48 135.925C186.64 139.285 185.08 140.805 182.28 140.805C178.8 140.805 176.52 137.845 176.52 133.445C176.52 129.085 178.84 126.365 182.44 126.365Z" fill="#212121"/>
<rect x="1" y="1" width="118" height="367" rx="15" fill="#FBEE9D" stroke="#212121" stroke-width="2"/>
<path d="M45 117.28L45 114.88L74.16 114.88L74.16 117.64L60.6 117.64C63.44 119 64.88 121.64 64.88 124.92C64.88 130.56 60.48 133.84 54.64 133.84C48.84 133.84 44.52 130.48 44.52 124.84C44.52 121.6 45.96 118.92 48.96 117.56L45 117.28ZM54.72 117.68C50.24 117.68 47.04 120.16 47.04 124.4C47.04 128.6 50.24 131.04 54.72 131.04C59.16 131.04 62.4 128.6 62.4 124.4C62.4 120.16 59.16 117.68 54.72 117.68ZM64.36 151.371L64.36 154.131L45 154.131L45 151.731L48.28 151.371C46.04 150.291 44.52 147.611 44.52 144.571C44.52 140.011 47.64 137.531 52.36 137.531L64.4 137.531L64.4 140.331L53.24 140.331C48.64 140.331 47 142.371 47 145.451C47 149.171 49.48 151.371 54.08 151.371L64.36 151.371ZM50.44 157.849L50.44 160.489C48.2 160.489 46.8 162.169 46.8 164.889C46.8 167.889 48.08 169.649 50.16 169.649C51.76 169.649 52.68 168.849 53.24 166.569L54.08 163.249C54.92 159.889 56.68 158.249 59.32 158.249C62.72 158.249 64.88 161.089 64.88 165.249C64.88 169.329 62.64 171.969 59.04 172.089L59.04 169.409C61.28 169.329 62.6 167.769 62.6 165.169C62.6 162.449 61.44 160.929 59.36 160.929C57.88 160.929 56.84 161.969 56.32 164.089L55.48 167.409C54.64 170.769 53.08 172.289 50.28 172.289C46.8 172.289 44.52 169.329 44.52 164.929C44.52 160.569 46.84 157.849 50.44 157.849ZM69.68 178.193C69.68 177.073 70.6 176.153 71.72 176.153C72.84 176.153 73.8 177.073 73.8 178.193C73.8 179.313 72.84 180.273 71.72 180.273C70.6 180.273 69.68 179.313 69.68 178.193ZM45 176.833L64.36 176.833L64.36 179.593L45 179.593L45 176.833ZM45 188.109L45 185.349L64.36 185.349L64.36 187.749L61 188.149C63.48 189.429 64.88 191.989 64.88 194.789C64.88 200.109 61.72 202.309 56.84 202.309L45 202.309L45 199.549L56.24 199.549C60.76 199.549 62.36 197.509 62.36 194.309C62.36 190.349 59.48 188.109 55.12 188.109L45 188.109ZM44.52 215.93C44.52 210.25 48.6 206.45 54.68 206.45C60.72 206.45 64.88 210.21 64.88 215.73C64.88 220.97 61.16 224.53 55.68 224.53L54.32 224.53L54.32 209.13C49.6 209.33 46.88 211.81 46.88 215.97C46.88 219.13 48.24 221.17 50.8 221.89L50.8 224.53C46.72 223.49 44.52 220.49 44.52 215.93ZM62.52 215.73C62.52 212.09 60.12 209.69 56.32 209.21L56.32 221.77C60.04 221.77 62.52 219.37 62.52 215.73ZM50.44 227.302L50.44 229.942C48.2 229.942 46.8 231.622 46.8 234.342C46.8 237.342 48.08 239.102 50.16 239.102C51.76 239.102 52.68 238.302 53.24 236.022L54.08 232.702C54.92 229.342 56.68 227.702 59.32 227.702C62.72 227.702 64.88 230.542 64.88 234.702C64.88 238.782 62.64 241.422 59.04 241.542L59.04 238.862C61.28 238.782 62.6 237.222 62.6 234.622C62.6 231.902 61.44 230.382 59.36 230.382C57.88 230.382 56.84 231.422 56.32 233.542L55.48 236.862C54.64 240.222 53.08 241.742 50.28 241.742C46.8 241.742 44.52 238.782 44.52 234.382C44.52 230.022 46.84 227.302 50.44 227.302ZM50.44 244.646L50.44 247.286C48.2 247.286 46.8 248.966 46.8 251.686C46.8 254.686 48.08 256.446 50.16 256.446C51.76 256.446 52.68 255.646 53.24 253.366L54.08 250.046C54.92 246.686 56.68 245.046 59.32 245.046C62.72 245.046 64.88 247.886 64.88 252.046C64.88 256.126 62.64 258.766 59.04 258.886L59.04 256.206C61.28 256.126 62.6 254.566 62.6 251.966C62.6 249.246 61.44 247.726 59.36 247.726C57.88 247.726 56.84 248.766 56.32 250.886L55.48 254.206C54.64 257.566 53.08 259.086 50.28 259.086C46.8 259.086 44.52 256.126 44.52 251.726C44.52 247.366 46.84 244.646 50.44 244.646Z" fill="#212121"/>
<rect x="133" y="221" width="329" height="147" rx="15" fill="#BEEAEF" stroke="#212121" stroke-width="2"/>
<path d="M259 309.48C253.32 309.48 249.52 305.4 249.52 299.32C249.52 293.28 253.28 289.12 258.8 289.12C264.04 289.12 267.6 292.84 267.6 298.32V299.68H252.2C252.4 304.4 254.88 307.12 259.04 307.12C262.2 307.12 264.24 305.76 264.96 303.2H267.6C266.56 307.28 263.56 309.48 259 309.48ZM258.8 291.48C255.16 291.48 252.76 293.88 252.28 297.68H264.84C264.84 293.96 262.44 291.48 258.8 291.48ZM277.378 309.48C273.258 309.48 270.818 307.16 270.818 303.76C270.818 300.2 273.538 297.96 278.058 297.6L284.458 297.08V296.44C284.458 292.64 282.178 291.44 279.338 291.44C275.978 291.44 273.978 292.96 273.978 295.56H271.458C271.458 291.64 274.658 289.12 279.418 289.12C283.898 289.12 287.178 291.36 287.178 296.48V309H284.858L284.498 305.6C283.298 308.04 280.658 309.48 277.378 309.48ZM278.018 307.24C282.098 307.24 284.458 304.4 284.458 300.2V299.16L278.738 299.6C275.098 299.92 273.618 301.52 273.618 303.68C273.618 306.04 275.378 307.24 278.018 307.24ZM291.076 303.56H293.716C293.716 305.8 295.396 307.2 298.116 307.2C301.116 307.2 302.876 305.92 302.876 303.84C302.876 302.24 302.076 301.32 299.796 300.76L296.476 299.92C293.116 299.08 291.476 297.32 291.476 294.68C291.476 291.28 294.316 289.12 298.476 289.12C302.556 289.12 305.196 291.36 305.316 294.96H302.636C302.556 292.72 300.996 291.4 298.396 291.4C295.676 291.4 294.156 292.56 294.156 294.64C294.156 296.12 295.196 297.16 297.316 297.68L300.636 298.52C303.996 299.36 305.516 300.92 305.516 303.72C305.516 307.2 302.556 309.48 298.156 309.48C293.796 309.48 291.076 307.16 291.076 303.56ZM311.42 284.32C310.3 284.32 309.38 283.4 309.38 282.28C309.38 281.16 310.3 280.2 311.42 280.2C312.54 280.2 313.5 281.16 313.5 282.28C313.5 283.4 312.54 284.32 311.42 284.32ZM310.06 309V289.64H312.82V309H310.06ZM321.455 309H318.695V279.84H321.455V309ZM325.365 317.44V315.16H327.485C329.165 315.16 330.845 315.04 331.805 312.44L332.645 310.16L324.805 289.64H327.725L333.965 306.52L340.085 289.64H342.925L334.045 313.44C332.925 316.48 331.045 317.72 328.285 317.72C327.125 317.72 326.245 317.64 325.365 317.44ZM345.467 309.44C344.107 309.44 342.947 308.32 342.947 307C342.947 305.64 344.107 304.48 345.467 304.48C346.827 304.48 347.987 305.64 347.987 307C347.987 308.32 346.827 309.44 345.467 309.44Z" fill="#212121"/>
<rect x="267" y="1" width="195" height="205.617" rx="15" fill="#F0C6C0" stroke="#212121" stroke-width="2"/>
<path d="M387.321 56.4062C388.896 56.8203 390.403 57.457 391.798 58.297C401.055 63.4966 408.922 71.8981 410.825 82.646C411.869 90.0663 410.724 97.6299 407.531 104.409C403.482 113.698 397.063 121.759 388.917 127.785C382.419 132.576 374.792 136.109 369.729 142.394C364.944 148.337 362.371 156.73 355.39 159.804C351.915 161.153 348.098 161.343 344.507 160.345C310.912 152.371 315.53 102.313 331.113 80.9777L331.163 80.9071C338.186 71.6082 347.819 64.6107 358.833 60.8059C366.777 57.9355 378.798 54.4641 387.321 56.4062Z" fill="white" stroke="white" stroke-width="2" stroke-miterlimit="10"/>
<path d="M410.712 82.646C408.808 71.8981 400.944 63.4966 391.687 58.2969C390.41 57.5432 389.046 56.9485 387.625 56.5259C393.728 61.3906 397.922 68.2503 399.47 75.8999C400.513 83.3203 399.369 90.8838 396.176 97.663C392.126 106.952 385.706 115.013 377.559 121.039C371.063 125.83 363.436 129.363 358.373 135.647C353.587 141.591 351.016 149.984 344.034 153.058C340.56 154.407 336.743 154.597 333.152 153.599C332.161 153.362 331.203 153.089 330.279 152.778C334.21 156.535 339.091 159.151 344.396 160.345C347.986 161.342 351.803 161.153 355.276 159.804C362.26 156.73 364.831 148.337 369.615 142.396C374.678 136.109 382.308 132.574 388.801 127.785C396.949 121.759 403.37 113.698 407.42 104.409C410.613 97.6298 411.755 90.0663 410.712 82.646Z" fill="#DACDF4" stroke="#DACDF4" stroke-width="2" stroke-linecap="round" stroke-linejoin="round"/>
<path d="M375.716 52.8471C375.716 52.8471 367.376 65.9648 355.465 69.7528C343.553 73.5407 328.66 68.2962 328.66 68.2962C328.66 68.2962 337 55.1785 348.911 51.3884C360.823 47.5983 375.716 52.8471 375.716 52.8471Z" fill="#DACDF4"/>
<path d="M392.165 58.2948C401.629 63.4966 409.669 71.8981 411.616 82.646C412.684 90.0735 411.513 97.6511 408.251 104.409C404.076 113.741 397.511 121.805 389.219 127.785C382.578 132.576 374.78 136.109 369.604 142.393C364.712 148.337 362.083 156.73 354.944 159.804C351.386 161.153 347.493 161.343 343.822 160.345C309.471 152.371 314.194 102.313 330.124 80.9777L330.176 80.9071C332.741 77.2163 335.834 73.9216 339.356 71.1281M377.855 46.531V58.2948" stroke="#212121" stroke-width="2" stroke-linecap="round" stroke-linejoin="round"/>
<path d="M375.714 52.8471C375.714 52.8471 367.374 65.9649 355.463 69.7528C343.551 73.5408 328.658 68.2963 328.658 68.2963C328.658 68.2963 336.998 55.1785 348.909 51.3884C360.821 47.5983 375.714 52.8471 375.714 52.8471Z" stroke="#212121" stroke-width="2" stroke-linecap="round" stroke-linejoin="round"/>
</svg>
