<svg width="469" height="237" viewBox="0 0 469 237" fill="none" xmlns="http://www.w3.org/2000/svg">
<rect x="1" y="1" width="277" height="150" rx="11" fill="#F0C6C0" stroke="#212121" stroke-width="2"/>
<path d="M171 76.4381C171 93.2468 157.347 106.876 140.5 106.876C123.653 106.876 110 93.2468 110 76.4381C110 59.6295 123.653 46 140.5 46C157.347 46 171 59.6295 171 76.4381Z" fill="white" stroke="#212121" stroke-width="2"/>
<path d="M150.262 74.7052C151.597 75.4746 151.597 77.4016 150.262 78.171L137.113 85.748C135.779 86.5163 134.114 85.5539 134.114 84.0151L134.114 68.8612C134.114 67.3223 135.779 66.36 137.113 67.1283L150.262 74.7052Z" fill="#212121"/>
<rect x="146" y="169" width="322" height="67" rx="15" fill="white" stroke="#212121" stroke-width="2"/>
<path d="M191.534 201.012C192.869 201.782 192.869 203.709 191.534 204.478L178.384 212.055C177.051 212.823 175.386 211.861 175.386 210.322L175.386 195.168C175.386 193.629 177.051 192.667 178.384 193.435L191.534 201.012Z" fill="#212121"/>
<rect x="211.541" y="196.245" width="232" height="13" rx="6.5" fill="white" stroke="#212121" stroke-width="2"/>
<rect x="212" y="197" width="48" height="11" rx="5.5" fill="#F0C6C0" stroke="#212121" stroke-width="2"/>
</svg>
