<svg width="46" height="56" viewBox="0 0 46 56" fill="none" xmlns="http://www.w3.org/2000/svg">
<path d="M33.4261 5.86352C34.1623 6.05711 34.8671 6.35478 35.5191 6.74752C39.8471 9.17852 43.5251 13.1065 44.4151 18.1315C44.9029 21.6008 44.3677 25.137 42.8751 28.3065C40.982 32.6492 37.9807 36.4181 34.1721 39.2355C31.1341 41.4755 27.5681 43.1275 25.2011 46.0655C22.9641 48.8445 21.7611 52.7685 18.4971 54.2055C16.8728 54.8363 15.088 54.925 13.4091 54.4585C-2.29787 50.7305 -0.138873 27.3265 7.14713 17.3515L7.17013 17.3185C10.4538 12.971 14.9574 9.69938 20.1071 7.92052C23.8211 6.57852 29.4411 4.95552 33.4261 5.86352Z" fill="white" stroke="white" stroke-width="2" stroke-miterlimit="10"/>
<path d="M44.3628 18.1315C43.4728 13.1065 39.7958 9.17849 35.4678 6.74749C34.8709 6.3951 34.2332 6.11703 33.5688 5.91949C36.4222 8.19391 38.383 11.401 39.1068 14.9775C39.5946 18.4468 39.0594 21.983 37.5668 25.1525C35.6734 29.4953 32.6718 33.2642 28.8628 36.0815C25.8258 38.3215 22.2598 39.9735 19.8928 42.9115C17.6548 45.6905 16.4528 49.6145 13.1888 51.0515C11.5645 51.6823 9.77972 51.771 8.10081 51.3045C7.63748 51.1938 7.18981 51.0658 6.75781 50.9205C8.59574 52.6772 10.8774 53.9003 13.3578 54.4585C15.0364 54.9248 16.8208 54.836 18.4448 54.2055C21.7098 52.7685 22.9118 48.8445 25.1488 46.0665C27.5158 43.1275 31.0828 41.4745 34.1188 39.2355C37.9282 36.4184 40.9301 32.6495 42.8238 28.3065C44.3164 25.137 44.8506 21.6008 44.3628 18.1315Z" fill="#DACDF4" stroke="#DACDF4" stroke-width="2" stroke-linecap="round" stroke-linejoin="round"/>
<path d="M28 4.1995C28 4.1995 24.101 10.3325 18.532 12.1035C12.963 13.8745 6 11.4225 6 11.4225C6 11.4225 9.899 5.2895 15.468 3.5175C21.037 1.7455 28 4.1995 28 4.1995Z" fill="#DACDF4"/>
<path d="M35.6909 6.74652C40.1159 9.17852 43.8749 13.1065 44.7849 18.1315C45.2847 21.6042 44.737 25.1469 43.2119 28.3065C41.26 32.6695 38.1905 36.4396 34.3139 39.2355C31.2089 41.4755 27.5629 43.1275 25.1429 46.0655C22.8559 48.8445 21.6269 52.7685 18.2889 54.2055C16.6257 54.8364 14.8055 54.9249 13.0889 54.4585C-2.97108 50.7305 -0.763083 27.3265 6.68492 17.3515L6.70892 17.3185C7.90845 15.5929 9.35449 14.0526 11.0009 12.7465M29.0009 1.24652V6.74652" stroke="#212121" stroke-width="2" stroke-linecap="round" stroke-linejoin="round"/>
<path d="M28 4.1995C28 4.1995 24.101 10.3325 18.532 12.1035C12.963 13.8745 6 11.4225 6 11.4225C6 11.4225 9.899 5.2895 15.468 3.5175C21.037 1.7455 28 4.1995 28 4.1995Z" stroke="#212121" stroke-width="2" stroke-linecap="round" stroke-linejoin="round"/>
</svg>
