<svg width="310" height="82" viewBox="0 0 310 82" fill="none" xmlns="http://www.w3.org/2000/svg">
<path d="M33.4261 18.8637C34.1623 19.0573 34.8671 19.355 35.5191 19.7477C39.8471 22.1787 43.5251 26.1067 44.4151 31.1317C44.9029 34.601 44.3677 38.1372 42.8751 41.3067C40.982 45.6494 37.9807 49.4183 34.1721 52.2357C31.1341 54.4757 27.5681 56.1277 25.2011 59.0657C22.9641 61.8447 21.7611 65.7687 18.4971 67.2057C16.8728 67.8365 15.088 67.9252 13.4091 67.4587C-2.29787 63.7307 -0.138873 40.3267 7.14713 30.3517L7.17013 30.3187C10.4538 25.9712 14.9574 22.6996 20.1071 20.9207C23.8211 19.5787 29.4411 17.9557 33.4261 18.8637Z" fill="white" stroke="white" stroke-width="2" stroke-miterlimit="10"/>
<path d="M44.3628 31.1314C43.4728 26.1064 39.7958 22.1784 35.4678 19.7474C34.8709 19.395 34.2332 19.117 33.5688 18.9194C36.4222 21.1939 38.383 24.401 39.1068 27.9774C39.5946 31.4467 39.0594 34.9829 37.5668 38.1524C35.6734 42.4953 32.6718 46.2642 28.8628 49.0814C25.8258 51.3214 22.2598 52.9734 19.8928 55.9114C17.6548 58.6904 16.4528 62.6144 13.1888 64.0514C11.5645 64.6822 9.77972 64.7709 8.10081 64.3044C7.63748 64.1938 7.18981 64.0658 6.75781 63.9204C8.59574 65.6772 10.8774 66.9003 13.3578 67.4584C15.0364 67.9247 16.8208 67.836 18.4448 67.2054C21.7098 65.7684 22.9118 61.8444 25.1488 59.0664C27.5158 56.1274 31.0828 54.4744 34.1188 52.2354C37.9282 49.4183 40.9301 45.6494 42.8238 41.3064C44.3164 38.1369 44.8506 34.6007 44.3628 31.1314Z" fill="#DACDF4" stroke="#DACDF4" stroke-width="2" stroke-linecap="round" stroke-linejoin="round"/>
<path d="M28 17.1995C28 17.1995 24.101 23.3325 18.532 25.1035C12.963 26.8745 6 24.4225 6 24.4225C6 24.4225 9.899 18.2895 15.468 16.5175C21.037 14.7455 28 17.1995 28 17.1995Z" fill="#DACDF4"/>
<path d="M35.6909 19.7466C40.1159 22.1786 43.8749 26.1066 44.7849 31.1316C45.2847 34.6042 44.737 38.147 43.2119 41.3066C41.26 45.6695 38.1905 49.4397 34.3139 52.2356C31.2089 54.4756 27.5629 56.1276 25.1429 59.0656C22.8559 61.8446 21.6269 65.7686 18.2889 67.2056C16.6257 67.8364 14.8055 67.925 13.0889 67.4586C-2.97108 63.7306 -0.763083 40.3266 6.68492 30.3516L6.70892 30.3186C7.90845 28.593 9.35449 27.0526 11.0009 25.7466M29.0009 14.2466V19.7466" stroke="#212121" stroke-width="2" stroke-linecap="round" stroke-linejoin="round"/>
<path d="M28 17.1995C28 17.1995 24.101 23.3325 18.532 25.1035C12.963 26.8745 6 24.4225 6 24.4225C6 24.4225 9.899 18.2895 15.468 16.5175C21.037 14.7455 28 17.1995 28 17.1995Z" stroke="#212121" stroke-width="2" stroke-linecap="round" stroke-linejoin="round"/>
<mask id="path-6-outside-1_261_2928" maskUnits="userSpaceOnUse" x="70.9648" y="17.5" width="242" height="65" fill="black">
<rect fill="white" x="70.9648" y="17.5" width="242" height="65"/>
<path d="M83.0048 64.5H73.5848V20.1H83.0048L96.2048 53.22L109.465 20.1H119.005V64.5H109.585V55.2C109.585 45.6 109.585 43.5 110.065 40.2L100.645 64.5H91.7648L82.4048 40.2C82.9448 43.5 83.0048 47.22 83.0048 52.08V64.5ZM136.173 65.28C129.813 65.28 125.853 61.56 125.853 55.68C125.853 50.16 129.753 46.74 136.953 46.2L145.353 45.54V45.06C145.353 42.12 143.553 40.56 140.253 40.56C136.353 40.56 134.253 42.06 134.253 44.76H126.573C126.573 37.98 132.153 33.54 140.733 33.54C149.433 33.54 154.353 38.4 154.353 46.98V64.5H146.193L145.593 60.54C144.633 63.3 140.673 65.28 136.173 65.28ZM139.413 58.44C142.953 58.44 145.413 56.7 145.413 53.28V51.66L140.733 52.08C136.713 52.44 135.273 53.34 135.273 55.26C135.273 57.42 136.593 58.44 139.413 58.44ZM170.22 64.5H160.98V34.5H169.68L170.28 37.62C172.14 35.04 175.56 33.54 179.46 33.54C186.6 33.54 190.74 38.1 190.74 45.96V64.5H181.5V48.18C181.5 44.4 179.4 41.94 176.22 41.94C172.56 41.94 170.22 44.34 170.22 48.06V64.5ZM195.867 48.96C195.867 39.84 201.807 33.48 210.267 33.48C214.347 33.48 217.587 35.04 219.207 37.5L219.687 34.5H228.387V62.58C228.387 73.32 222.207 79.8 211.947 79.8C202.767 79.8 196.587 74.58 195.747 66.06H205.107C205.287 69.42 207.807 71.4 211.887 71.4C216.327 71.4 219.147 68.76 219.147 64.5V60.6C217.347 62.76 213.987 64.14 210.087 64.14C201.687 64.14 195.867 57.96 195.867 48.96ZM205.167 48.72C205.167 53.04 208.047 56.1 212.127 56.1C216.327 56.1 219.147 53.16 219.147 48.72C219.147 44.34 216.327 41.52 212.067 41.52C207.987 41.52 205.167 44.46 205.167 48.72ZM233.715 49.44C233.715 39.96 240.675 33.6 250.275 33.6C259.815 33.6 266.775 39.96 266.775 49.44C266.775 58.92 259.815 65.22 250.275 65.22C240.675 65.22 233.715 58.92 233.715 49.44ZM243.015 49.38C243.015 53.94 245.955 56.94 250.275 56.94C254.535 56.94 257.475 53.94 257.475 49.38C257.475 44.88 254.535 41.88 250.275 41.88C245.955 41.88 243.015 44.88 243.015 49.38ZM282.15 42.3L267.87 20.1H279.45L283.17 25.92C284.79 28.44 286.35 31.14 288.33 34.8L297.21 20.1H308.55L294.51 42.3L308.55 64.5H297.03L294.09 59.88C291.87 56.34 290.43 53.7 288.27 49.74L278.73 64.5H267.33L282.15 42.3Z"/>
</mask>
<path d="M83.0048 64.5H73.5848V20.1H83.0048L96.2048 53.22L109.465 20.1H119.005V64.5H109.585V55.2C109.585 45.6 109.585 43.5 110.065 40.2L100.645 64.5H91.7648L82.4048 40.2C82.9448 43.5 83.0048 47.22 83.0048 52.08V64.5ZM136.173 65.28C129.813 65.28 125.853 61.56 125.853 55.68C125.853 50.16 129.753 46.74 136.953 46.2L145.353 45.54V45.06C145.353 42.12 143.553 40.56 140.253 40.56C136.353 40.56 134.253 42.06 134.253 44.76H126.573C126.573 37.98 132.153 33.54 140.733 33.54C149.433 33.54 154.353 38.4 154.353 46.98V64.5H146.193L145.593 60.54C144.633 63.3 140.673 65.28 136.173 65.28ZM139.413 58.44C142.953 58.44 145.413 56.7 145.413 53.28V51.66L140.733 52.08C136.713 52.44 135.273 53.34 135.273 55.26C135.273 57.42 136.593 58.44 139.413 58.44ZM170.22 64.5H160.98V34.5H169.68L170.28 37.62C172.14 35.04 175.56 33.54 179.46 33.54C186.6 33.54 190.74 38.1 190.74 45.96V64.5H181.5V48.18C181.5 44.4 179.4 41.94 176.22 41.94C172.56 41.94 170.22 44.34 170.22 48.06V64.5ZM195.867 48.96C195.867 39.84 201.807 33.48 210.267 33.48C214.347 33.48 217.587 35.04 219.207 37.5L219.687 34.5H228.387V62.58C228.387 73.32 222.207 79.8 211.947 79.8C202.767 79.8 196.587 74.58 195.747 66.06H205.107C205.287 69.42 207.807 71.4 211.887 71.4C216.327 71.4 219.147 68.76 219.147 64.5V60.6C217.347 62.76 213.987 64.14 210.087 64.14C201.687 64.14 195.867 57.96 195.867 48.96ZM205.167 48.72C205.167 53.04 208.047 56.1 212.127 56.1C216.327 56.1 219.147 53.16 219.147 48.72C219.147 44.34 216.327 41.52 212.067 41.52C207.987 41.52 205.167 44.46 205.167 48.72ZM233.715 49.44C233.715 39.96 240.675 33.6 250.275 33.6C259.815 33.6 266.775 39.96 266.775 49.44C266.775 58.92 259.815 65.22 250.275 65.22C240.675 65.22 233.715 58.92 233.715 49.44ZM243.015 49.38C243.015 53.94 245.955 56.94 250.275 56.94C254.535 56.94 257.475 53.94 257.475 49.38C257.475 44.88 254.535 41.88 250.275 41.88C245.955 41.88 243.015 44.88 243.015 49.38ZM282.15 42.3L267.87 20.1H279.45L283.17 25.92C284.79 28.44 286.35 31.14 288.33 34.8L297.21 20.1H308.55L294.51 42.3L308.55 64.5H297.03L294.09 59.88C291.87 56.34 290.43 53.7 288.27 49.74L278.73 64.5H267.33L282.15 42.3Z" fill="white"/>
<path d="M83.0048 64.5V66.5H85.0048V64.5H83.0048ZM73.5848 64.5H71.5848V66.5H73.5848V64.5ZM73.5848 20.1V18.1H71.5848V20.1H73.5848ZM83.0048 20.1L84.8627 19.3595L84.3607 18.1H83.0048V20.1ZM96.2048 53.22L94.347 53.9605L96.2006 58.6115L98.0616 53.9634L96.2048 53.22ZM109.465 20.1V18.1H108.111L107.608 19.3566L109.465 20.1ZM119.005 20.1H121.005V18.1H119.005V20.1ZM119.005 64.5V66.5H121.005V64.5H119.005ZM109.585 64.5H107.585V66.5H109.585V64.5ZM110.065 40.2L112.044 40.4879L108.2 39.4771L110.065 40.2ZM100.645 64.5V66.5H102.015L102.51 65.2229L100.645 64.5ZM91.7648 64.5L89.8985 65.2189L90.392 66.5H91.7648V64.5ZM82.4048 40.2L84.2712 39.4811L80.4311 40.523L82.4048 40.2ZM83.0048 62.5H73.5848V66.5H83.0048V62.5ZM75.5848 64.5V20.1H71.5848V64.5H75.5848ZM73.5848 22.1H83.0048V18.1H73.5848V22.1ZM81.147 20.8405L94.347 53.9605L98.0627 52.4795L84.8627 19.3595L81.147 20.8405ZM98.0616 53.9634L111.322 20.8434L107.608 19.3566L94.3481 52.4766L98.0616 53.9634ZM109.465 22.1H119.005V18.1H109.465V22.1ZM117.005 20.1V64.5H121.005V20.1H117.005ZM119.005 62.5H109.585V66.5H119.005V62.5ZM111.585 64.5V55.2H107.585V64.5H111.585ZM111.585 55.2C111.585 45.5423 111.59 43.6114 112.044 40.4879L108.086 39.9121C107.58 43.3886 107.585 45.6577 107.585 55.2H111.585ZM108.2 39.4771L98.7801 63.7771L102.51 65.2229L111.93 40.9229L108.2 39.4771ZM100.645 62.5H91.7648V66.5H100.645V62.5ZM93.6312 63.7811L84.2712 39.4811L80.5385 40.9189L89.8985 65.2189L93.6312 63.7811ZM80.4311 40.523C80.9409 43.6382 81.0048 47.1996 81.0048 52.08H85.0048C85.0048 47.2404 84.9488 43.3618 84.3786 39.877L80.4311 40.523ZM81.0048 52.08V64.5H85.0048V52.08H81.0048ZM136.953 46.2L137.102 48.1944L137.109 48.1939L136.953 46.2ZM145.353 45.54L145.509 47.5339L147.353 47.389V45.54H145.353ZM134.253 44.76V46.76H136.253V44.76H134.253ZM126.573 44.76H124.573V46.76H126.573V44.76ZM154.353 64.5V66.5H156.353V64.5H154.353ZM146.193 64.5L144.215 64.7996L144.473 66.5H146.193V64.5ZM145.593 60.54L147.57 60.2404L143.704 59.883L145.593 60.54ZM145.413 51.66H147.413V49.4725L145.234 49.668L145.413 51.66ZM140.733 52.08L140.911 54.072L140.912 54.072L140.733 52.08ZM136.173 63.28C133.378 63.28 131.327 62.4674 129.992 61.2225C128.673 59.9919 127.853 58.1535 127.853 55.68H123.853C123.853 59.0865 125.013 62.0481 127.264 64.1475C129.499 66.2326 132.608 67.28 136.173 67.28V63.28ZM127.853 55.68C127.853 53.4366 128.621 51.7804 130.007 50.5889C131.45 49.348 133.76 48.4451 137.102 48.1944L136.803 44.2056C132.946 44.4949 129.706 45.572 127.399 47.5561C125.034 49.5896 123.853 52.4034 123.853 55.68H127.853ZM137.109 48.1939L145.509 47.5339L145.196 43.5461L136.796 44.2061L137.109 48.1939ZM147.353 45.54V45.06H143.353V45.54H147.353ZM147.353 45.06C147.353 43.1691 146.759 41.4333 145.36 40.2048C144.005 39.0144 142.186 38.56 140.253 38.56V42.56C141.62 42.56 142.351 42.8856 142.721 43.2102C143.047 43.4967 143.353 44.0109 143.353 45.06H147.353ZM140.253 38.56C138.095 38.56 136.124 38.9671 134.639 40.0119C133.049 41.1308 132.253 42.8165 132.253 44.76H136.253C136.253 44.0035 136.506 43.5892 136.941 43.2831C137.482 42.9029 138.511 42.56 140.253 42.56V38.56ZM134.253 42.76H126.573V46.76H134.253V42.76ZM128.573 44.76C128.573 41.9724 129.695 39.7475 131.678 38.1743C133.705 36.5668 136.768 35.54 140.733 35.54V31.54C136.118 31.54 132.101 32.7332 129.192 35.0407C126.24 37.3825 124.573 40.7676 124.573 44.76H128.573ZM140.733 35.54C144.719 35.54 147.558 36.6477 149.4 38.4659C151.239 40.2803 152.353 43.0685 152.353 46.98H156.353C156.353 42.3115 155.007 38.3797 152.21 35.6191C149.417 32.8623 145.447 31.54 140.733 31.54V35.54ZM152.353 46.98V64.5H156.353V46.98H152.353ZM154.353 62.5H146.193V66.5H154.353V62.5ZM148.17 64.2004L147.57 60.2404L143.615 60.8396L144.215 64.7996L148.17 64.2004ZM143.704 59.883C143.453 60.6029 142.709 61.4564 141.313 62.1578C139.947 62.8436 138.145 63.28 136.173 63.28V67.28C138.701 67.28 141.128 66.7264 143.108 65.7322C145.057 64.7536 146.772 63.2371 147.482 61.197L143.704 59.883ZM139.413 60.44C141.482 60.44 143.482 59.9339 145.004 58.6924C146.584 57.4038 147.413 55.5137 147.413 53.28H143.413C143.413 54.4663 143.011 55.1562 142.476 55.5926C141.883 56.0761 140.884 56.44 139.413 56.44V60.44ZM147.413 53.28V51.66H143.413V53.28H147.413ZM145.234 49.668L140.554 50.088L140.912 54.072L145.592 53.652L145.234 49.668ZM140.554 50.088C138.505 50.2715 136.751 50.6102 135.477 51.3634C134.795 51.7671 134.208 52.3131 133.808 53.0406C133.411 53.7619 133.273 54.5278 133.273 55.26H137.273C137.273 55.1442 137.284 55.0702 137.293 55.0276C137.302 54.9874 137.311 54.971 137.313 54.9669C137.315 54.9633 137.322 54.9515 137.344 54.9294C137.369 54.9055 137.419 54.8623 137.513 54.8066C137.964 54.5398 138.941 54.2485 140.911 54.072L140.554 50.088ZM133.273 55.26C133.273 56.7726 133.759 58.24 135.066 59.2452C136.262 60.1657 137.828 60.44 139.413 60.44V56.44C138.178 56.44 137.673 56.2043 137.505 56.0748C137.447 56.03 137.273 55.9074 137.273 55.26H133.273ZM170.22 64.5V66.5H172.22V64.5H170.22ZM160.98 64.5H158.98V66.5H160.98V64.5ZM160.98 34.5V32.5H158.98V34.5H160.98ZM169.68 34.5L171.644 34.1223L171.332 32.5H169.68V34.5ZM170.28 37.62L168.316 37.9977L169.191 42.5499L171.902 38.7896L170.28 37.62ZM190.74 64.5V66.5H192.74V64.5H190.74ZM181.5 64.5H179.5V66.5H181.5V64.5ZM170.22 62.5H160.98V66.5H170.22V62.5ZM162.98 64.5V34.5H158.98V64.5H162.98ZM160.98 36.5H169.68V32.5H160.98V36.5ZM167.716 34.8777L168.316 37.9977L172.244 37.2423L171.644 34.1223L167.716 34.8777ZM171.902 38.7896C173.293 36.86 176.025 35.54 179.46 35.54V31.54C175.095 31.54 170.987 33.22 168.658 36.4504L171.902 38.7896ZM179.46 35.54C182.589 35.54 184.824 36.525 186.297 38.1471C187.795 39.7962 188.74 42.3637 188.74 45.96H192.74C192.74 41.6963 191.616 38.0538 189.258 35.4579C186.876 32.835 183.471 31.54 179.46 31.54V35.54ZM188.74 45.96V64.5H192.74V45.96H188.74ZM190.74 62.5H181.5V66.5H190.74V62.5ZM183.5 64.5V48.18H179.5V64.5H183.5ZM183.5 48.18C183.5 45.9324 182.874 43.8773 181.578 42.3487C180.255 40.7889 178.365 39.94 176.22 39.94V43.94C177.255 43.94 178.005 44.3211 178.527 44.9363C179.076 45.5826 179.5 46.6476 179.5 48.18H183.5ZM176.22 39.94C173.942 39.94 171.895 40.697 170.418 42.206C168.946 43.7104 168.22 45.7767 168.22 48.06H172.22C172.22 46.6233 172.664 45.6296 173.277 45.004C173.885 44.383 174.838 43.94 176.22 43.94V39.94ZM168.22 48.06V64.5H172.22V48.06H168.22ZM219.207 37.5L217.536 38.6L220.368 42.9001L221.182 37.816L219.207 37.5ZM219.687 34.5V32.5H217.981L217.712 34.184L219.687 34.5ZM228.387 34.5H230.387V32.5H228.387V34.5ZM195.747 66.06V64.06H193.54L193.756 66.2562L195.747 66.06ZM205.107 66.06L207.104 65.953L207.002 64.06H205.107V66.06ZM219.147 60.6H221.147V55.0759L217.61 59.3196L219.147 60.6ZM197.867 48.96C197.867 44.8368 199.204 41.4753 201.358 39.1631C203.502 36.861 206.561 35.48 210.267 35.48V31.48C205.512 31.48 201.372 33.279 198.431 36.4369C195.499 39.5847 193.867 43.9632 193.867 48.96H197.867ZM210.267 35.48C213.881 35.48 216.387 36.8554 217.536 38.6L220.877 36.4C218.786 33.2246 214.812 31.48 210.267 31.48V35.48ZM221.182 37.816L221.662 34.816L217.712 34.184L217.232 37.184L221.182 37.816ZM219.687 36.5H228.387V32.5H219.687V36.5ZM226.387 34.5V62.58H230.387V34.5H226.387ZM226.387 62.58C226.387 67.5723 224.956 71.3344 222.567 73.8366C220.19 76.3271 216.646 77.8 211.947 77.8V81.8C217.507 81.8 222.183 80.0329 225.461 76.5984C228.728 73.1756 230.387 68.3277 230.387 62.58H226.387ZM211.947 77.8C207.735 77.8 204.382 76.6064 202.012 74.599C199.655 72.6025 198.112 69.6678 197.737 65.8638L193.756 66.2562C194.221 70.9722 196.188 74.9075 199.426 77.651C202.652 80.3836 206.979 81.8 211.947 81.8V77.8ZM195.747 68.06H205.107V64.06H195.747V68.06ZM203.11 66.167C203.227 68.3631 204.138 70.2557 205.797 71.5616C207.412 72.8327 209.544 73.4 211.887 73.4V69.4C210.149 69.4 208.981 68.9773 208.271 68.4184C207.605 67.8943 207.166 67.1169 207.104 65.953L203.11 66.167ZM211.887 73.4C214.5 73.4 216.847 72.6177 218.556 71.0001C220.278 69.3704 221.147 67.0865 221.147 64.5H217.147C217.147 66.1735 216.605 67.3396 215.807 68.0949C214.996 68.8623 213.714 69.4 211.887 69.4V73.4ZM221.147 64.5V60.6H217.147V64.5H221.147ZM217.61 59.3196C216.297 60.895 213.584 62.14 210.087 62.14V66.14C214.39 66.14 218.396 64.625 220.683 61.8804L217.61 59.3196ZM210.087 62.14C206.399 62.14 203.386 60.7952 201.285 58.5566C199.176 56.3082 197.867 53.026 197.867 48.96H193.867C193.867 53.894 195.468 58.2018 198.368 61.2934C201.278 64.3948 205.374 66.14 210.087 66.14V62.14ZM203.167 48.72C203.167 51.3289 204.042 53.6835 205.661 55.4018C207.289 57.1283 209.565 58.1 212.127 58.1V54.1C210.609 54.1 209.405 53.5417 208.572 52.6582C207.732 51.7665 207.167 50.4311 207.167 48.72H203.167ZM212.127 58.1C214.711 58.1 217.011 57.1842 218.659 55.4552C220.3 53.7344 221.147 51.3666 221.147 48.72H217.147C217.147 50.5134 216.584 51.8356 215.764 52.6948C214.953 53.5458 213.742 54.1 212.127 54.1V58.1ZM221.147 48.72C221.147 46.0937 220.293 43.7581 218.627 42.0718C216.959 40.3838 214.648 39.52 212.067 39.52V43.52C213.745 43.52 214.974 44.0662 215.782 44.8832C216.59 45.7019 217.147 46.9663 217.147 48.72H221.147ZM212.067 39.52C209.528 39.52 207.266 40.4453 205.643 42.1385C204.026 43.8252 203.167 46.1429 203.167 48.72H207.167C207.167 47.0371 207.717 45.7548 208.531 44.9065C209.337 44.0647 210.526 43.52 212.067 43.52V39.52ZM235.715 49.44C235.715 45.2123 237.256 41.7911 239.768 39.4194C242.292 37.0376 245.92 35.6 250.275 35.6V31.6C245.031 31.6 240.379 33.3424 237.023 36.5106C233.655 39.6889 231.715 44.1877 231.715 49.44H235.715ZM250.275 35.6C254.598 35.6 258.211 37.0357 260.728 39.4177C263.235 41.7899 264.775 45.2121 264.775 49.44H268.775C268.775 44.1879 266.836 39.6901 263.478 36.5123C260.13 33.3443 255.493 31.6 250.275 31.6V35.6ZM264.775 49.44C264.775 53.667 263.236 57.0721 260.732 59.4286C258.217 61.796 254.603 63.22 250.275 63.22V67.22C255.488 67.22 260.124 65.494 263.474 62.3414C266.835 59.1778 268.775 54.693 268.775 49.44H264.775ZM250.275 63.22C245.915 63.22 242.286 61.794 239.764 59.4269C237.255 57.0709 235.715 53.6668 235.715 49.44H231.715C231.715 54.6932 233.656 59.1791 237.027 62.3431C240.385 65.496 245.036 67.22 250.275 67.22V63.22ZM241.015 49.38C241.015 52.0953 241.898 54.5108 243.587 56.2595C245.281 58.0135 247.637 58.94 250.275 58.94V54.94C248.594 54.94 247.32 54.3665 246.464 53.4805C245.603 52.5892 245.015 51.2247 245.015 49.38H241.015ZM250.275 58.94C252.891 58.94 255.232 58.0083 256.916 56.2552C258.593 54.508 259.475 52.0951 259.475 49.38H255.475C255.475 51.2249 254.888 52.592 254.03 53.4848C253.179 54.3717 251.92 54.94 250.275 54.94V58.94ZM259.475 49.38C259.475 46.6881 258.589 44.2901 256.912 42.5532C255.229 40.8112 252.891 39.88 250.275 39.88V43.88C251.92 43.88 253.182 44.4488 254.034 45.3318C254.892 46.2199 255.475 47.5719 255.475 49.38H259.475ZM250.275 39.88C247.638 39.88 245.284 40.8061 243.591 42.5489C241.902 44.2873 241.015 46.6879 241.015 49.38H245.015C245.015 47.5721 245.599 46.2227 246.46 45.3361C247.317 44.4539 248.593 43.88 250.275 43.88V39.88ZM282.15 42.3L283.813 43.4104L284.541 42.3203L283.832 41.218L282.15 42.3ZM267.87 20.1V18.1H264.205L266.188 21.182L267.87 20.1ZM279.45 20.1L281.135 19.0229L280.545 18.1H279.45V20.1ZM283.17 25.92L281.485 26.9971L281.488 27.0015L283.17 25.92ZM288.33 34.8L286.571 35.7516L288.234 38.8264L290.042 35.8341L288.33 34.8ZM297.21 20.1V18.1H296.082L295.498 19.0659L297.21 20.1ZM308.55 20.1L310.24 21.169L312.181 18.1H308.55V20.1ZM294.51 42.3L292.82 41.231L292.144 42.3L292.82 43.369L294.51 42.3ZM308.55 64.5V66.5H312.181L310.24 63.431L308.55 64.5ZM297.03 64.5L295.343 65.5738L295.932 66.5H297.03V64.5ZM294.09 59.88L292.396 60.9426L292.403 60.9538L294.09 59.88ZM288.27 49.74L290.026 48.7823L288.416 45.8303L286.59 48.6543L288.27 49.74ZM278.73 64.5V66.5H279.819L280.41 65.5857L278.73 64.5ZM267.33 64.5L265.667 63.3896L263.59 66.5H267.33V64.5ZM283.832 41.218L269.552 19.018L266.188 21.182L280.468 43.382L283.832 41.218ZM267.87 22.1H279.45V18.1H267.87V22.1ZM277.765 21.1771L281.485 26.9971L284.855 24.8429L281.135 19.0229L277.765 21.1771ZM281.488 27.0015C283.07 29.4635 284.604 32.1157 286.571 35.7516L290.089 33.8484C288.096 30.1643 286.51 27.4165 284.852 24.8385L281.488 27.0015ZM290.042 35.8341L298.922 21.1341L295.498 19.0659L286.618 33.7659L290.042 35.8341ZM297.21 22.1H308.55V18.1H297.21V22.1ZM306.86 19.031L292.82 41.231L296.2 43.369L310.24 21.169L306.86 19.031ZM292.82 43.369L306.86 65.569L310.24 63.431L296.2 41.231L292.82 43.369ZM308.55 62.5H297.03V66.5H308.55V62.5ZM298.717 63.4263L295.777 58.8062L292.403 60.9538L295.343 65.5738L298.717 63.4263ZM295.784 58.8174C293.6 55.335 292.187 52.7441 290.026 48.7823L286.514 50.6977C288.673 54.6559 290.14 57.345 292.396 60.9426L295.784 58.8174ZM286.59 48.6543L277.05 63.4143L280.41 65.5857L289.95 50.8257L286.59 48.6543ZM278.73 62.5H267.33V66.5H278.73V62.5ZM268.993 65.6104L283.813 43.4104L280.487 41.1896L265.667 63.3896L268.993 65.6104Z" fill="#212121" mask="url(#path-6-outside-1_261_2928)"/>
</svg>
