<svg width="89" height="13" viewBox="0 0 89 13" fill="none" xmlns="http://www.w3.org/2000/svg">
<path d="M3.15931 12.9506C2.82156 13.1222 2.43832 12.8215 2.50656 12.4376L3.23281 8.33836L0.150196 5.42992C-0.137678 5.15779 0.0119467 4.66035 0.397821 4.60661L4.68356 4.00343L6.59455 0.253492C6.76693 -0.0844972 7.2333 -0.0844972 7.40568 0.253492L9.31667 4.00343L13.6024 4.60661C13.9883 4.66035 14.1379 5.15779 13.8492 5.42992L10.7674 8.33836L11.4937 12.4376C11.5619 12.8215 11.1787 13.1222 10.8409 12.9506L6.9988 10.9955L3.15931 12.9506Z" fill="#212121"/>
<path d="M21.1593 12.9506C20.8216 13.1222 20.4383 12.8215 20.5066 12.4376L21.2328 8.33836L18.1502 5.42992C17.8623 5.15779 18.0119 4.66035 18.3978 4.60661L22.6836 4.00343L24.5946 0.253492C24.7669 -0.0844972 25.2333 -0.0844972 25.4057 0.253492L27.3167 4.00343L31.6024 4.60661C31.9883 4.66035 32.1379 5.15779 31.8492 5.42992L28.7674 8.33836L29.4937 12.4376C29.5619 12.8215 29.1787 13.1222 28.8409 12.9506L24.9988 10.9955L21.1593 12.9506Z" fill="#212121"/>
<path d="M39.385 12.9506C39.0231 13.1222 38.6125 12.8215 38.6856 12.4376L39.4637 8.33836L36.1609 5.42992C35.8525 5.15779 36.0128 4.66035 36.4262 4.60661L41.0181 4.00343L43.0656 0.253492C43.2503 -0.0844972 43.75 -0.0844972 43.9347 0.253492L45.9821 4.00343L50.574 4.60661C50.9874 4.66035 51.1478 5.15779 50.8384 5.42992L47.5365 8.33836L48.3146 12.4376C48.3878 12.8215 47.9771 13.1222 47.6153 12.9506L43.4987 10.9955L39.385 12.9506Z" fill="#212121"/>
<path d="M58.385 12.9506C58.0231 13.1222 57.6125 12.8215 57.6856 12.4376L58.4637 8.33836L55.1609 5.42992C54.8525 5.15779 55.0128 4.66035 55.4262 4.60661L60.0181 4.00343L62.0656 0.253492C62.2503 -0.0844972 62.75 -0.0844972 62.9347 0.253492L64.9821 4.00343L69.574 4.60661C69.9874 4.66035 70.1478 5.15779 69.8384 5.42992L66.5365 8.33836L67.3146 12.4376C67.3878 12.8215 66.9771 13.1222 66.6153 12.9506L62.4987 10.9955L58.385 12.9506Z" fill="#212121"/>
<path d="M77.385 12.9506C77.0231 13.1222 76.6125 12.8215 76.6856 12.4376L77.4637 8.33836L74.1609 5.42992C73.8525 5.15779 74.0128 4.66035 74.4262 4.60661L79.0181 4.00343L81.0656 0.253492C81.2503 -0.0844972 81.75 -0.0844972 81.9347 0.253492L83.9821 4.00343L88.574 4.60661C88.9874 4.66035 89.1478 5.15779 88.8384 5.42992L85.5365 8.33836L86.3146 12.4376C86.3878 12.8215 85.9771 13.1222 85.6153 12.9506L81.4987 10.9955L77.385 12.9506Z" fill="#212121"/>
</svg>
